<svg width="24" height="24" viewBox="0 0 24 24" xmlns="http://www.w3.org/2000/svg">
<g clip-path="url(#clip0)">
<path d="M24 2.92249C23.1169 3.40214 22.1679 3.72631 21.1719 3.87215C22.1887 3.12574 22.9693 1.94377 23.3369 0.535463C22.3704 1.23799 21.3129 1.73297 20.2103 1.999C19.312 0.826908 18.0324 0.0943909 16.6162 0.0943909C13.8968 0.0943909 11.6921 2.79479 11.6921 6.1254C11.6921 6.59816 11.7357 7.05841 11.8196 7.49994C7.72744 7.24834 4.09931 4.84731 1.67072 1.19839C1.24697 2.08915 1.00416 3.12528 1.00416 4.23043C1.00416 6.32291 1.8735 8.16884 3.19463 9.25045C2.4127 9.22045 1.64798 8.96177 0.964313 8.496C0.964031 8.52126 0.964031 8.54652 0.964031 8.5719C0.964031 11.494 2.66128 13.9317 4.91372 14.4858C4.18864 14.7273 3.42809 14.7627 2.69016 14.5891C3.31669 16.9852 5.13516 18.7288 7.28972 18.7776C5.60456 20.3952 3.48141 21.3594 1.17459 21.3594C0.777094 21.3594 0.385219 21.3308 0 21.2751C2.17903 22.9864 4.76719 23.9848 7.54781 23.9848C16.6047 23.9848 21.5573 14.7947 21.5573 6.82484C21.5573 6.56325 21.5526 6.30316 21.543 6.04455C22.507 5.19099 23.339 4.13376 24 2.92249" fill="#55ACEE"/>
</g>
<defs>
<clipPath id="clip0">
<rect width="24" height="24" fill="white"/>
</clipPath>
</defs>
</svg>
